<svg width="312" height="312" viewBox="0 0 312 312" fill="none" xmlns="http://www.w3.org/2000/svg">
<g clip-path="url(#clip0_1933_31)">
<path d="M155.96 311.701C242.095 311.701 311.92 241.924 311.92 155.85C311.92 69.7766 242.095 0 155.96 0C69.8257 0 0 69.7766 0 155.85C0 241.924 69.8257 311.701 155.96 311.701Z" fill="#D4D5E2"/>
<path d="M136.783 310.534C123.674 306.13 110.863 300.15 98.6069 292.535C21.8976 244.868 -6.92361 149.383 26.7524 68.6832C48.2834 37.0019 79.6618 15.6233 114.218 6.10156C100.713 16.8806 88.7868 30.1034 79.1399 45.6063C33.656 118.701 56.0807 214.802 129.227 260.253C167.511 284.043 212.104 289.243 252.434 278.314C225.89 299.224 192.383 311.701 155.96 311.701C149.467 311.701 143.067 311.304 136.783 310.534Z" fill="#BABCD8"/>
<path d="M87.9952 296.164C102.231 299.744 117.134 301.646 132.482 301.646C222.813 301.646 297.745 235.766 311.792 149.466C310.249 111.2 294.899 76.4874 270.586 50.1672C276.357 66.4464 279.499 83.969 279.499 102.225C279.499 188.299 209.672 258.075 123.538 258.075C78.215 258.075 37.4074 238.755 8.91211 207.908C22.6555 246.674 51.3147 278.389 87.9952 296.164Z" fill="#A5A7C4"/>
<path d="M159.314 211.151C168.267 211.151 175.525 203.898 175.525 194.951C175.525 186.005 168.267 178.752 159.314 178.752C150.361 178.752 143.103 186.005 143.103 194.951C143.103 203.898 150.361 211.151 159.314 211.151Z" fill="#A5A7C4"/>
<path d="M206.27 102.782C227.572 102.782 244.841 85.525 244.841 64.238C244.841 42.9509 227.572 25.6943 206.27 25.6943C184.968 25.6943 167.699 42.9509 167.699 64.238C167.699 85.525 184.968 102.782 206.27 102.782Z" fill="#A5A7C4"/>
<path d="M59.8126 158.642C73.7052 158.642 84.9675 147.388 84.9675 133.505C84.9675 119.622 73.7052 108.368 59.8126 108.368C45.92 108.368 34.6577 119.622 34.6577 133.505C34.6577 147.388 45.92 158.642 59.8126 158.642Z" fill="#A5A7C4"/>
</g>
<defs>
<clipPath id="clip0_1933_31">
<rect width="312" height="312" fill="white"/>
</clipPath>
</defs>
</svg>
